<?xml version="1.0" standalone="no"?>
<!DOCTYPE svg PUBLIC "-//W3C//DTD SVG 20010904//EN"
 "http://www.w3.org/TR/2001/REC-SVG-20010904/DTD/svg10.dtd">
<svg version="1.0" xmlns="http://www.w3.org/2000/svg"
 width="450.000000pt" height="450.000000pt" viewBox="0 0 450.000000 450.000000"
 preserveAspectRatio="xMidYMid meet">
<metadata>
Created by potrace 1.11, written by Peter Selinger 2001-2013
</metadata>
<g transform="translate(0.000000,450.000000) scale(0.100000,-0.100000)"
fill="#000000" stroke="none">
<path d="M1819 3887 c-24 -18 -1739 -2992 -1739 -3015 0 -11 9 -31 21 -46 l20
-26 763 0 763 0 20 22 c39 44 996 1713 996 1738 0 27 -734 1306 -762 1327 -21
16 -61 16 -82 0z m399 -672 c186 -313 338 -571 337 -572 -1 -2 -77 31 -169 73
-93 41 -169 74 -171 72 -1 -2 -42 -88 -90 -193 -48 -104 -88 -191 -89 -192 -1
-2 -47 59 -101 135 -54 75 -106 147 -115 159 -18 24 3 37 -279 -186 l-94 -74
5 142 c2 77 3 141 1 141 -2 0 -64 -38 -139 -85 -152 -95 -179 -111 -171 -98 2
4 152 269 332 588 180 319 341 604 357 634 22 39 33 50 39 40 5 -8 161 -270
347 -584z"/>
<path d="M3108 2983 c-8 -10 -281 -480 -606 -1044 -422 -731 -592 -1035 -592
-1056 0 -16 8 -37 18 -46 17 -16 117 -17 1234 -17 1164 0 1216 1 1231 18 10
10 17 31 17 45 0 18 -208 387 -581 1035 -320 554 -592 1024 -605 1045 -21 32
-29 37 -63 37 -24 0 -43 -6 -53 -17z m277 -388 c114 -192 221 -372 237 -398
34 -57 38 -59 -120 57 -68 50 -126 90 -130 89 -7 -3 -12 -16 -37 -105 l-16
-58 -79 66 c-42 37 -82 65 -86 64 -5 -2 -44 -46 -86 -97 l-77 -93 -53 75 c-33
48 -57 74 -66 70 -7 -2 -56 -35 -109 -72 -53 -36 -94 -62 -92 -56 2 6 112 195
243 422 190 327 242 409 251 399 7 -7 106 -170 220 -363z"/>
</g>
</svg>
