<svg width="940" height="1350" xmlns="http://www.w3.org/2000/svg">
 <!-- Created with Method Draw - http://github.com/duopixel/Method-Draw/ -->

 <g>
  <title>background</title>
  <rect x="-1" y="-1" width="942" height="1352" id="canvas_background" fill="#fff"/>
  <g id="canvasGrid" display="none">
   <rect id="svg_6" width="100%" height="100%" x="0" y="0" stroke-width="0" fill="url(#gridpattern)"/>
  </g>
 </g>
 <g>
  <title>Layer 1</title>
  <path stroke="#000" fill="#46c6a5" stroke-width="0" stroke-opacity="null" d="m-574.50086,1349.162695l757.010713,-1206.017396l757.010694,1206.017396l-1514.021407,0z" id="svg_4" opacity="0.85"/>
  <path fill="#cffaef" stroke="#000" stroke-width="0" stroke-opacity="null" d="m38.927978,369.942168l145.00201,-240.0033l145.00202,240.0033l-290.00403,0z" id="svg_17"/>
  <path stroke="#000" fill="#74a2dc" stroke-width="0" stroke-opacity="null" d="m-642.83369,1346.67306l679.0094,-1018.0153l679.0094,1018.0153l-1358.0188,0z" id="svg_3" opacity="0.95"/>
  <path fill="#6bdbbf" stroke-width="0" d="m-143.01702,1348.59679l342.00473,-541.25784l342.00473,541.25784l-342.00473,0l-342.00473,0z" id="svg_1" stroke="#000" opacity="0.8"/>
  <path fill="#cffaef" stroke-width="0" stroke-opacity="null" d="m232.96909,968.52963l26.99619,-20.04224l26.99622,20.04224l-53.99242,0l0.00001,0z" id="svg_30" transform="rotate(179.95193481445312 259.9653015136718,958.5085449218749) " stroke="#000"/>
  <path fill="#cffaef" stroke-width="0" stroke-opacity="null" d="m106.92652,949.95139l91.00127,-146.002l91.00127,146.002l-182.00254,0z" id="svg_29" stroke="#000"/>
  <path fill="#cffaef" stroke-width="0" stroke-opacity="null" d="m166.96391,978.50209l42.0006,-30.0021l42.00061,30.0021l-84.00121,0z" id="svg_32" transform="rotate(179.95193481445312 208.96450805664062,963.5010375976561) " stroke="#000"/>
  <path stroke="#000" fill="#a0c2ed" stroke-width="0" stroke-opacity="null" d="m-24.49395,1346.143091l473.43529,-712.009861l473.4353,712.009861l-946.8706,0l0.00001,0z" id="svg_2" opacity="0.9"/>
  <path stroke="#000" fill="#3268ac" stroke-width="0" stroke-opacity="null" d="m-277.16934,1351.303134l320.00442,-418.005793l320.00443,418.005793l-640.00885,0z" id="svg_5" opacity="0.9"/>
  <path fill="#cffaef" stroke-width="0" stroke-opacity="null" d="m228.96715,394.500465l51.00072,-30.0021l51.00073,30.0021l-102.00145,0z" id="svg_18" transform="rotate(179.95193481445312 279.9679260253906,379.4994506835937) " stroke="#000"/>
  <path fill="#cffaef" stroke-width="0" stroke-opacity="null" d="m164.975155,386.498705l51.00072,-24.10437l51.00073,24.10437l-102.00145,0z" id="svg_19" transform="rotate(179.95193481445312 215.9758605957031,374.44653320312494) " stroke="#000"/>
  <path fill="#cffaef" stroke-width="0" stroke-opacity="null" d="m54.973693,390.518028l28.00042,-24.10437l28.00042,24.10437l-56.00084,0z" id="svg_21" transform="rotate(179.95193481445312 82.97410583496095,378.46585083007807) " stroke="#000"/>
  <path fill="#cffaef" stroke="#000" stroke-width="0" stroke-opacity="null" d="m92.96863,392.49886l51.00073,-38.00054l51.00073,38.00054l-102.00145,0l-0.00001,0z" id="svg_20" transform="rotate(179.95193481445312 143.9693603515625,373.4985961914062) "/>
  <path fill="#cffaef" stroke-width="0" stroke-opacity="null" d="m108.95892,968.48371l36.00471,-19.96339l36.00471,19.96339l-72.00942,0z" id="svg_31" transform="rotate(179.95193481445312 144.96363830566403,958.5020141601561) " stroke="#000"/>
  <path stroke="#000" fill="#d3e4fa" stroke-width="0" stroke-opacity="null" d="m-111.07627,541.94475l145.00201,-216.00322l145.00202,216.00322l-290.00403,0z" id="svg_33"/>
  <path fill="#d3e4fa" stroke-width="0" stroke-opacity="null" d="m-59.03882,572.50304l51.00072,-30.0021l51.00073,30.0021l-102.00145,0z" id="svg_35" transform="rotate(179.95193481445312 -8.038094520568848,557.5019531249999) " stroke="#000"/>
  <path fill="#d3e4fa" stroke-width="0" stroke-opacity="null" d="m10.96551,572.50826l42.99894,-38.00053l42.99894,38.00053l-85.99788,0z" id="svg_36" transform="rotate(179.95193481445312 53.964447021484375,553.5079956054686) " stroke="#000"/>
  <path fill="#d3e4fa" stroke-width="0" stroke-opacity="null" d="m72.96291,570.50309l51.00072,-30.0021l51.00073,30.0021l-102.00145,0z" id="svg_37" transform="rotate(179.95193481445312 123.96361541748045,555.5020751953124) " stroke="#000"/>
  <path fill="#d3e4fa" stroke-width="0" stroke-opacity="null" d="m312.93078,839.94977l136.00189,-210.00286l136.0019,210.00286l-272.00379,0z" id="svg_38" stroke="#000"/>
  <path fill="#d3e4fa" stroke-width="0" stroke-opacity="null" d="m496.97327,876.51331l42.99893,-38.00053l42.99894,38.00053l-85.99787,0z" id="svg_39" transform="rotate(179.95193481445312 539.97216796875,857.5130615234375) " stroke="#000"/>
  <path fill="#d3e4fa" stroke-width="0" stroke-opacity="null" d="m312.97074,876.51754l37.99886,-38.00053l37.99887,38.00053l-75.99773,0z" id="svg_40" transform="rotate(179.95193481445312 350.9695739746094,857.5172729492186) " stroke="#000"/>
  <path fill="#d3e4fa" stroke-width="0" stroke-opacity="null" d="m352.96894,870.50066l56.0033,-31.99877l56.00331,31.99877l-112.00661,0z" id="svg_41" transform="rotate(179.95193481445312 408.9722595214843,854.5012817382811) " stroke="#000"/>
  <path fill="#d3e4fa" stroke-width="0" stroke-opacity="null" d="m444.97253,876.51324l42.99893,-38.00053l42.99894,38.00053l-85.99787,0z" id="svg_42" transform="rotate(179.95193481445312 487.971435546875,857.513000488281) " stroke="#000"/>
  <path fill="#d3e4fa" stroke-width="0" stroke-opacity="null" d="m-55.07622,1067.9529l100.00138,-140.00193l100.0014,140.00193l-200.00278,0z" id="svg_43" stroke="#000"/>
  <path fill="#d3e4fa" stroke-width="0" stroke-opacity="null" d="m-7.04228,1088.49556l42.00898,-21.97849l42.00898,21.97849l-84.01797,0l0.00001,0z" id="svg_45" transform="rotate(179.95193481445312 34.966697692871094,1077.50634765625) " stroke="#000"/>
  <path fill="#d3e4fa" stroke-width="0" stroke-opacity="null" d="m76.95885,1088.50812l33.00552,-21.97849l33.00551,21.97849l-66.01103,0z" id="svg_46" transform="rotate(179.95193481445312 109.96436309814453,1077.518798828125) " stroke="#000"/>
 </g>
</svg>